<?xml version="1.0" encoding="iso-8859-1"?>
<!-- Generator: Adobe Illustrator 19.0.0, SVG Export Plug-In . SVG Version: 6.00 Build 0)  -->
<svg version="1.1" id="Capa_1" xmlns="http://www.w3.org/2000/svg" xmlns:xlink="http://www.w3.org/1999/xlink" x="0px" y="0px"
	 viewBox="0 0 512 512" style="enable-background:new 0 0 512 512;" xml:space="preserve">
<polygon style="fill:#FF6243;" points="360.218,263.837 303.02,7.837 208.98,7.837 151.782,263.837 36.571,347.429 36.571,472.816 
	475.429,472.816 475.429,347.429 "/>
<rect x="232.49" y="323.396" width="47.02" height="15.673"/>
<g>
	<rect x="279.51" y="292.049" style="fill:#FFFFFF;" width="15.673" height="15.673"/>
	<rect x="248.163" y="292.049" style="fill:#FFFFFF;" width="15.673" height="15.673"/>
	<rect x="216.816" y="292.049" style="fill:#FFFFFF;" width="15.673" height="15.673"/>
</g>
<g>
	<rect x="36.571" y="441.469" style="fill:#B53224;" width="161.959" height="31.347"/>
	<rect x="313.469" y="441.469" style="fill:#B53224;" width="161.959" height="31.347"/>
</g>
<rect x="229.878" y="368.327" style="fill:#FFDA44;" width="52.245" height="135.837"/>
<polygon style="fill:#FFFFFF;" points="292.571,259.657 219.429,259.657 240.327,123.82 271.673,123.82 "/>
<path d="M222.041,512h67.918V360.49h-67.918V512z M237.714,376.163h36.571v120.163h-36.571V376.163z"/>
<path d="M233.603,115.984l-23.31,151.51h91.412l-23.31-151.51H233.603z M228.563,251.82l18.486-120.163h17.9l18.486,120.163H228.563
	z"/>
<path d="M467.592,242.939v89.121L367.22,259.234L309.299,0H202.701l-57.922,259.235L44.408,332.06v-89.121H28.735v100.494v3.996
	v133.224h161.959v23.51h15.673V368.327h-15.673v65.306H44.408v-82.208l114.376-82.986l56.475-252.765h81.483l56.475,252.765
	l114.376,82.986v82.208H321.306v-65.306h-15.673v135.837h15.673v-23.51h161.959V347.429v-3.996V242.939H467.592z M190.694,449.306
	v15.673H44.408v-15.673H190.694z M321.306,464.98v-15.673h146.286v15.673H321.306z"/>
<g>
</g>
<g>
</g>
<g>
</g>
<g>
</g>
<g>
</g>
<g>
</g>
<g>
</g>
<g>
</g>
<g>
</g>
<g>
</g>
<g>
</g>
<g>
</g>
<g>
</g>
<g>
</g>
<g>
</g>
</svg>
